<?xml version="1.0" encoding="utf-8"?>
<!-- Generator: Adobe Illustrator 18.1.0, SVG Export Plug-In . SVG Version: 6.00 Build 0)  -->
<svg version="1.1" id="Layer_1" xmlns="http://www.w3.org/2000/svg" xmlns:xlink="http://www.w3.org/1999/xlink" x="0px" y="0px"
	 viewBox="0 0 595.3 841.9" enable-background="new 0 0 595.3 841.9" xml:space="preserve">
<path fill="#007E9E" d="M562.5,67.7H16.8c-1.1,0-2,0.9-2,2V437c0,1.1,0.9,2,2,2h172l-79.6,115.7c-0.6,0.9-0.4,2.2,0.5,2.8l25.5,17.6
	c0.9,0.6,2.2,0.4,2.8-0.5L231.3,439h115.4l93.2,135.5c0.6,0.9,1.9,1.1,2.8,0.5l25.5-17.6c0.9-0.6,1.1-1.9,0.5-2.8L389.2,439h173.3
	c1.1,0,2-0.9,2-2V69.7C564.5,68.6,563.6,67.7,562.5,67.7z"/>
</svg>
