<?xml version="1.0" encoding="utf-8"?>
<!-- Generator: Adobe Illustrator 18.1.0, SVG Export Plug-In . SVG Version: 6.00 Build 0)  -->
<svg version="1.1" id="Layer_1" xmlns="http://www.w3.org/2000/svg" xmlns:xlink="http://www.w3.org/1999/xlink" x="0px" y="0px"
	 viewBox="28 -28 100 100" enable-background="new 28 -28 100 100" xml:space="preserve">
<g transform="translate(0.000000,100.000000) scale(0.100000,-0.100000)">
	<path fill="#2962FF" d="M315,1187c-3-6-4-147-3-312l3-300l138-3c75-1,137-5,137-7c0-3-28-46-62-96c-61-87-62-91-44-105
		c11-8,25-14,30-14c6,0,44,50,84,110l74,110h103h102l74-110c41-60,79-109,84-109c6,0,19,6,29,14c18,14,17,18-40,102
		c-32,49-60,91-62,95s59,9,135,10l138,3v310v310l-458,3C414,1200,318,1198,315,1187z"/>
</g>
</svg>
