<?xml version="1.0" standalone="no"?>
<!DOCTYPE svg PUBLIC "-//W3C//DTD SVG 1.1//EN" "http://www.w3.org/Graphics/SVG/1.1/DTD/svg11.dtd">
<svg width="100px" height="100px" version="1.1" xmlns="http://www.w3.org/2000/svg" xmlns:xlink="http://www.w3.org/1999/xlink" xml:space="preserve" style="fill-rule:evenodd;clip-rule:evenodd;stroke-linejoin:round;stroke-miterlimit:1.41421;">
    <g>
        <g id="Layer1">
            <g>
                <path d="M98.9933,25.8267L87.1167,17.6768C86.4467,17.2134 85.5,16.7969 84.5134,16.4937C83.5267,16.1904 82.5034,16 81.6767,16L47.5,16L51.5,39L81.6767,39C82.5034,39 83.5267,38.8135 84.5134,38.5103C85.5,38.207 86.4467,37.7871 87.1167,37.3271L98.9933,29.1733C99.6633,28.7134 100,28.1104 100,27.5C100,26.8936 99.6633,26.2871 98.9933,25.8267ZM42.5,5L38,5C36.9,5 36,5.90039 36,7L36,26L18.32,26C17.4933,26 16.47,26.1904 15.4833,26.4937C14.5,26.7935 13.55,27.2134 12.88,27.6733L1.00336,35.8271C0.333374,36.2871 0,36.8936 0,37.5C0,38.1069 0.333374,38.7134 1.00336,39.1733L12.88,47.3271C13.55,47.7871 14.5,48.2036 15.4833,48.5103C16.47,48.8135 17.4933,49 18.32,49L36,49L36,93C36,94.1001 36.9,95 38,95L42.5,95C43.6,95 44.5,94.1001 44.5,93L44.5,7C44.5,5.90039 43.6,5 42.5,5Z" style="fill:rgb(66,133,243);"/>
            </g>
        </g>
    </g>
</svg>
