<?xml version="1.0" encoding="utf-8"?>
<!-- Generator: Adobe Illustrator 18.1.0, SVG Export Plug-In . SVG Version: 6.00 Build 0)  -->
<svg version="1.1" id="Layer_1" xmlns="http://www.w3.org/2000/svg" xmlns:xlink="http://www.w3.org/1999/xlink" x="0px" y="0px"
	 viewBox="-247 370.9 100 100" enable-background="new -247 370.9 100 100" xml:space="preserve">
<g>
	<g id="Layer1">
		<g>
			<path fill="#007E9E" d="M-148,396.7l-11.9-8.1c-0.7-0.5-1.6-0.9-2.6-1.2c-1-0.3-2-0.5-2.8-0.5h-34.2l4,23h30.2
				c0.8,0,1.9-0.2,2.8-0.5c1-0.3,1.9-0.7,2.6-1.2l11.9-8.2c0.7-0.5,1-1.1,1-1.7C-147,397.8-147.3,397.2-148,396.7z M-204.5,375.9
				h-4.5c-1.1,0-2,0.9-2,2v19h-17.7c-0.8,0-1.9,0.2-2.8,0.5c-1,0.3-1.9,0.7-2.6,1.2l-11.9,8.2c-0.7,0.5-1,1.1-1,1.7
				c0,0.6,0.3,1.2,1,1.7l11.9,8.2c0.7,0.5,1.6,0.9,2.6,1.2c1,0.3,2,0.5,2.8,0.5h17.7v44c0,1.1,0.9,2,2,2h4.5c1.1,0,2-0.9,2-2v-86
				C-202.5,376.8-203.4,375.9-204.5,375.9z"/>
		</g>
	</g>
</g>
</svg>
