<?xml version="1.0" encoding="utf-8"?>
<!-- Generator: Adobe Illustrator 18.1.0, SVG Export Plug-In . SVG Version: 6.00 Build 0)  -->
<svg version="1.1" id="Layer_1" xmlns="http://www.w3.org/2000/svg" xmlns:xlink="http://www.w3.org/1999/xlink" x="0px" y="0px"
	 viewBox="-247 370.9 100 100" enable-background="new -247 370.9 100 100" xml:space="preserve">
<g>
	<g id="Layer1">
		<g>
			<path fill="#007E9E" d="M-162.2,451.7c-0.3,1.9,6.4,5.1,7.1-0.5c2.9-25.4-2.1-32.7-2.1-32.7l-7,3.9
				C-164.2,422.5-158.3,428.1-162.2,451.7z M-149.4,407.6l-41.6-23.3c-3.3-1.8-8.6-1.8-11.9,0l-41.6,23.3c-3.3,1.8-3.3,4.8,0,6.6
				l41.6,23.3c3.3,1.8,8.6,1.8,11.9,0l26.9-15.1l-29.2-6.8c-1.1,0.3-2.4,0.4-3.7,0.4c-5.3,0-9.5-2.5-9.5-5.7c0-3.1,4.3-5.7,9.5-5.7
				c4.1,0,7.6,1.5,8.9,3.7l30.9,10.1l7.7-4.3C-146.2,412.4-146.2,409.4-149.4,407.6z M-230.5,432.1c2.3,9.4,5.3,13.5,15.1,17.8
				c9.8,4.3,14.5,9,18.4,9c3.9,0,8.2-4.1,18.1-8.4c9.9-4.3,7.2-5.6,9.5-15l-27.6,13.4L-230.5,432.1z"/>
		</g>
	</g>
</g>
</svg>
