<?xml version="1.0" standalone="no"?>
<!DOCTYPE svg PUBLIC "-//W3C//DTD SVG 1.1//EN" "http://www.w3.org/Graphics/SVG/1.1/DTD/svg11.dtd">
<svg width="100px" height="100px" version="1.1" xmlns="http://www.w3.org/2000/svg" xmlns:xlink="http://www.w3.org/1999/xlink" xml:space="preserve" style="fill-rule:evenodd;clip-rule:evenodd;stroke-linejoin:round;stroke-miterlimit:1.41421;">
    <g>
        <g id="Layer1">
            <g>
                <path d="M84.83,80.8515C84.5099,82.7817 91.2499,85.9416 91.8866,80.3115C94.7799,54.955 89.81,47.6581 89.81,47.6581L82.84,51.5615C82.84,51.5615 88.7499,57.1882 84.83,80.8515ZM97.55,36.6816L55.9301,13.3683C52.6701,11.5417 47.33,11.5417 44.07,13.3683L2.44986,36.6816C-0.819916,38.5048 -0.819916,41.4948 2.44986,43.3215L44.07,66.6315C47.33,68.4516 52.6701,68.4516 55.9301,66.6315L82.84,51.5615L53.6601,44.7248C52.5299,45.0048 51.3,45.1616 49.9999,45.1616C44.7399,45.1616 40.4799,42.6249 40.4799,39.4982C40.4799,36.3715 44.7399,33.8349 49.9999,33.8349C54.08,33.8349 57.55,35.3683 58.9001,37.5148L89.81,47.6581L97.55,43.3215C100.82,41.4948 100.82,38.5048 97.55,36.6816ZM16.5099,61.1916C18.83,70.5915 21.7799,74.6916 31.62,79.0016C41.4599,83.3015 46.1366,88.0016 49.9999,88.0016C53.86,88.0016 58.2399,83.8815 68.08,79.5815C77.9301,75.2817 75.3,73.9716 77.62,64.5715L49.9999,78.0016L16.5099,61.1916Z" style="fill:rgb(66,133,243);fill-rule:nonzero;"/>
            </g>
        </g>
    </g>
</svg>
